<?xml version="1.0" encoding="UTF-8"?>
<svg id="Labels" xmlns="http://www.w3.org/2000/svg" viewBox="0 0 164.96 260.13">
  <defs>
    <style>
      .cls-1 {
        fill: #8b4820;
        stroke-width: 0px;
      }
    </style>
  </defs>
  <path class="cls-1" d="m160.28,198.64h-76.63c-2.59,0-4.68-2.1-4.68-4.68v-60.65c0-1.29-.52-2.46-1.37-3.31-.85-.85-2.02-1.38-3.32-1.37-2.57,0-4.67,2.25-4.67,4.82v60.51c0,2.58-2.09,4.68-4.68,4.68H4.68c-2.58,0-4.68-2.09-4.68-4.68v-30.12c0-1.46.96-2.76,2.36-3.17,5.26-1.52,10.86-3.73,16.67-6.87,49.47-26.73,28.67-101.21,28.67-101.21,10.88,4.66,20.7-2.79,21.49-3.5.79-.69,4.64-2.89,11.04-1.31,6.41,1.58,6.84-.79,6.84-.79l-4.04-5.26s11.05,8.96,11.75-1.92c.7-10.88-13.33-11.58-16.14-12.98-2.79-1.41-10.87,1.04-22.1-4.57-11.23-5.62-26.31-3.16-26.31-3.16-4.66-7.2-19.3-5.45-19.3-5.45-1.04,10.52,7.2,15.26,7.2,15.26-6.31,7.55-5.08,34.73-5.08,34.73,1.72,15.09-1.53,26.59-7.05,34.74-1.82,2.68-6.02,1.36-6.02-1.88V18.44C0,8.25,8.25,0,18.44,0h116.99c10.18,0,18.44,8.25,18.44,18.44v57.68c0,35.24-27.99,66.14-62.95,67.37-.6.02-1.15.28-1.54.68-.39.4-.64.95-.64,1.55,0,.53.19,1.03.5,1.42.32.39.76.67,1.28.78,2.88.59,5.77.89,8.65.89,11.1,0,21.9-4.32,29.98-12.25,1.81-1.78,4.83-1.32,6.03.91l29.21,54.27c1.68,3.12-.58,6.9-4.12,6.9Z"/>
  <g>
    <path class="cls-1" d="m13.84,232.45l-1.25-8.93c-.18-.89-1.04-1.54-1.99-1.54h-2.4v10.47H2.69v-20.89h9.17c4.01,0,6.88,1.81,6.88,5.04,0,2.58-1.57,4.24-4.39,4.84v.03c2.4,0,4.09,1.57,4.36,3.62l1.04,7.36h-5.9Zm-.56-15.69c0-3-.89-4.6-2.55-4.6h-2.52v9.23h2.52c1.66,0,2.55-1.6,2.55-4.63Z"/>
    <path class="cls-1" d="m39.92,232.45h-5.93l-2.7-6.68h-6.71l-2.7,6.68h-.65l8.51-21.09h1.63l8.54,21.09Zm-11.96-14.98l-3.14,7.71h6.23l-3.09-7.71Z"/>
    <path class="cls-1" d="m49.35,228.53c0,3.41-1.39,6.17-5.22,6.17-1.81,0-3.17-.56-4.12-1.45l.36-.47c.21.21.98.8,1.6.8,1.04,0,1.9-.92,1.9-2.02v-20h5.49v16.97Z"/>
    <path class="cls-1" d="m69.88,216.96c0,3.47-3,5.4-6.97,5.4h-3.44v10.09h-5.52v-20.89h8.96c3.98,0,6.97,1.93,6.97,5.4Zm-5.52,0c0-3.14-.89-4.81-2.55-4.81h-2.34v9.61h2.34c1.66,0,2.55-1.66,2.55-4.81Z"/>
    <path class="cls-1" d="m88.07,226.37c0,3.2-2.34,6.65-8.22,6.65-4.54,0-7.6-2.61-7.6-5.79v-15.66h5.52v15.55c0,2.64,2.05,4.78,4.6,4.78,3.12,0,5.04-3.06,5.04-5.52v-14.8h.65v14.8Z"/>
    <path class="cls-1" d="m100.91,212.16v20.29h-5.52v-20.29h-5.87v-.59h17.3v.59h-5.9Z"/>
    <path class="cls-1" d="m123.58,232.45h-5.93l-2.7-6.68h-6.71l-2.7,6.68h-.65l8.51-21.09h1.63l8.54,21.09Zm-11.96-14.98l-3.14,7.71h6.23l-3.09-7.71Z"/>
    <path class="cls-1" d="m142.54,232.8h-3.53l-12.31-18.22v17.86h-.65v-20.89h5.25l10.59,15.72v-15.72h.65v21.24Z"/>
    <path class="cls-1" d="m163.6,232.45h-5.93l-2.7-6.68h-6.71l-2.7,6.68h-.65l8.51-21.09h1.63l8.54,21.09Zm-11.96-14.98l-3.14,7.71h6.23l-3.09-7.71Z"/>
  </g>
  <g>
    <path class="cls-1" d="m13.59,259.78l-1.27-7.2c-.32-1.73-1.99-3.04-4.02-3.04H3.99v10.23h-1.3v-20.35h5.52c3.35,0,5.96,1.79,5.96,5.06,0,2.6-1.45,4.28-3.85,4.83,1.82.4,3.06,1.79,3.35,3.53l1.21,6.94h-1.3Zm-.81-15.29c0-2.17-1.42-4.6-4.68-4.6H3.99v9.19h4.11c3.27,0,4.68-2.46,4.68-4.6Z"/>
    <path class="cls-1" d="m47.27,249.61c0,5.87-3.64,10.52-8.53,10.52s-8.53-4.65-8.53-10.52,3.64-10.52,8.53-10.52,8.53,4.65,8.53,10.52Zm-1.42,0c0-4.77-2.11-10.06-7.11-10.06s-7.11,5.29-7.11,10.06,2.14,10.06,7.11,10.06,7.11-5.29,7.11-10.06Z"/>
    <path class="cls-1" d="m77.94,253.57c0,3.27-2.72,6.56-7.11,6.56-4.86,0-6.94-3.06-6.94-6.33v-14.37h1.3v14.4c0,1.94.78,5.84,5.64,5.84,3.67,0,6.59-2.57,6.59-6.39v-13.85h.52v14.14Z"/>
    <path class="cls-1" d="m101.44,239.89v19.89h-1.3v-19.89h-6.74v-.46h14.77v.46h-6.74Z"/>
    <path class="cls-1" d="m125.38,249.23h6.65v.46h-6.65v9.63h10.78v.46h-12.08v-20.35h12.08v.46h-10.78v9.34Z"/>
    <path class="cls-1" d="m157.38,248.39c3.04,1.01,6.22,2.26,6.22,5.84s-3.01,5.87-6.62,5.87c-2.4,0-4.51-1.07-5.72-2.66l.35-.32c1.1,1.47,3.06,2.52,5.2,2.52,1.99,0,5.87-.93,5.87-4.74,0-3.15-2.66-4.19-5.72-5.23-2.69-.93-5.67-2.05-5.67-5.35,0-3.12,2.72-5.26,6.1-5.26,2.2,0,4.11.95,5.26,2.4l-.35.29c-1.07-1.27-2.8-2.23-4.91-2.23-2.52,0-5.2,1.39-5.2,4.22s2.52,3.73,5.2,4.65Z"/>
  </g>
</svg>