<?xml version="1.0" encoding="utf-8"?>
<!-- Generator: Adobe Illustrator 27.5.0, SVG Export Plug-In . SVG Version: 6.00 Build 0)  -->
<svg version="1.1" xmlns="http://www.w3.org/2000/svg" xmlns:xlink="http://www.w3.org/1999/xlink" x="0px" y="0px"
	 viewBox="0 0 500 500" style="enable-background:new 0 0 500 500;" xml:space="preserve">
<g id="BACKGROUND">
	<rect x="0.002" style="fill:#FFFFFF;" width="500" height="500"/>
</g>
<g id="OBJECTS">
	<ellipse style="opacity:0.5;fill:#C0D1E0;" cx="253" cy="437.157" rx="204.667" ry="9.343"/>
	<g>
		<path style="opacity:0.4;fill:#C0D1E0;" d="M369.419,141.083c38.444,65.687,16.355,150.096-49.325,188.536
			c-65.68,38.44-150.093,16.361-188.536-49.325c-18.472-31.561-22.965-67.446-15.361-100.484c0,0,0.006-0.004,0.008-0.013
			l-0.001-0.016c0.035-0.135,0.18-0.668,0.352-1.503c0.754-3.63,1.125-10.885-3.67-15.608c-6.061-5.979-9.237-5.253-10.291-9.222
			c-1.807-6.804,9.679-9.482,12.385-0.217c2.652,9.075,8.675,3.242,8.924,2.999l0.003-0.01
			c11.216-26.115,30.576-49.003,56.979-64.456C246.566,53.324,330.978,75.402,369.419,141.083z"/>
		<path style="opacity:0.4;fill:#C0D1E0;" d="M150.186,116.206c0-0.007,0.007-0.014,0.021-0.021l-0.007,0.014
			C150.193,116.206,150.186,116.206,150.186,116.206z"/>
		<path style="opacity:0.4;fill:#C0D1E0;" d="M151.27,115.065c-0.57,0.634-0.964,1.021-1.063,1.119
			C150.559,115.812,150.911,115.439,151.27,115.065z"/>
		<path style="opacity:0.4;fill:#C0D1E0;" d="M451.084,123.808h-63.707c0,0,2.796-17.97,10.678-17.27
			c2.179,0.192,3.664,2.405,4.636,4.777c0.599,1.464,2.692,1.36,3.126-0.159c2.084-7.304,6.348-18.449,12.955-18.449
			c6.833,0,7.059,12.753,6.564,20.518c-0.074,1.17,1.442,1.69,2.099,0.721c1.803-2.653,4.434-5.201,7.634-4.462
			c2.733,0.631,3.944,3.464,4.443,6.446c0.15,0.896,1.391,1.012,1.711,0.162c1.664-4.424,4.616-10.857,7.751-10.991
			C453.764,104.897,451.084,123.808,451.084,123.808z"/>
		<path style="opacity:0.4;fill:#C0D1E0;" d="M98.745,231.067H35.038c0,0,2.796-17.97,10.678-17.27
			c2.179,0.193,3.664,2.405,4.636,4.777c0.599,1.464,2.692,1.36,3.126-0.159c2.084-7.304,6.347-18.449,12.955-18.449
			c6.833,0,7.059,12.753,6.564,20.518c-0.073,1.17,1.442,1.69,2.1,0.721c1.803-2.653,4.434-5.201,7.634-4.462
			c2.733,0.631,3.944,3.464,4.443,6.446c0.15,0.896,1.392,1.012,1.711,0.162c1.664-4.424,4.616-10.857,7.751-10.991
			C101.425,212.157,98.745,231.067,98.745,231.067z"/>
		<path style="opacity:0.4;fill:#C0D1E0;" d="M55.148,102.588c0,0,2.485-15.961,9.483-15.339c1.937,0.172,3.254,2.135,4.117,4.243
			c0.532,1.299,2.391,1.207,2.777-0.142c1.852-6.485,5.639-16.385,11.507-16.385c6.07,0,6.271,11.326,5.83,18.224
			c-0.066,1.039,1.281,1.5,1.866,0.639c1.601-2.356,3.937-4.618,6.779-3.963c5.534,1.277,4.044,12.722,4.044,12.722H55.148z"/>
		<path style="opacity:0.4;fill:#C0D1E0;" d="M409.889,295.509c0,0,2.485-15.961,9.483-15.339c1.937,0.172,3.254,2.135,4.117,4.243
			c0.532,1.299,2.391,1.207,2.776-0.142c1.852-6.485,5.639-16.384,11.507-16.384c6.07,0,6.271,11.326,5.83,18.224
			c-0.066,1.039,1.28,1.5,1.866,0.639c1.601-2.356,3.937-4.618,6.779-3.963c5.534,1.277,4.044,12.723,4.044,12.723H409.889z"/>
		<path style="opacity:0.4;fill:#C0D1E0;" d="M226.685,58.239c0,0-21.293,1.449-19.711,10.242
			c1.582,8.793,13.198-4.495,24.967-2.059C243.71,68.857,244.783,56.467,226.685,58.239z"/>
		<path style="opacity:0.4;fill:#C0D1E0;" d="M321.708,69.947c-0.821-1.484-2.412-2.375-4.105-2.463
			c-3.358-0.174-9.728,0.555-9.771,8.573C307.779,85.891,325.655,77.084,321.708,69.947z"/>
		<path style="opacity:0.4;fill:#C0D1E0;" d="M253.233,62.671c-0.074-0.807-0.599-1.502-1.323-1.866
			c-1.436-0.721-4.362-1.626-5.921,1.873C244.077,66.969,253.589,66.552,253.233,62.671z"/>
		<path style="opacity:0.4;fill:#C0D1E0;" d="M107.869,181.66c0.028-1.167-0.607-2.251-1.583-2.892
			c-1.936-1.271-5.975-3.054-8.79,1.697C94.043,186.291,107.732,187.276,107.869,181.66z"/>
	</g>
	<g>
		<g>
			<g>
				<path style="fill:#211931;" d="M123.334,434.2c0,3.001-2.433,5.434-5.434,5.434c-3.001,0-5.434-2.433-5.434-5.434
					s2.433-5.434,5.434-5.434C120.901,428.766,123.334,431.199,123.334,434.2z"/>
				<path style="fill:#2F374B;" d="M122.801,434.2h-9.802c-2.832,0-5.129-2.296-5.129-5.129v-0.37h20.059v0.37
					C127.929,431.904,125.633,434.2,122.801,434.2z"/>
			</g>
			<g>
				<path style="fill:#211931;" d="M157.906,434.2c0,3.001-2.433,5.434-5.434,5.434c-3.001,0-5.434-2.433-5.434-5.434
					s2.433-5.434,5.434-5.434C155.473,428.766,157.906,431.199,157.906,434.2z"/>
				<path style="fill:#2F374B;" d="M157.372,434.2h-9.802c-2.833,0-5.129-2.296-5.129-5.129v-0.37h20.059v0.37
					C162.501,431.904,160.205,434.2,157.372,434.2z"/>
			</g>
			<path style="fill:#FD4A36;" d="M170.316,324.898v94.018c0,4.496-2.517,8.406-6.208,10.396c-1.661,0.895-3.571,1.403-5.591,1.403
				h-47.641c-1.273,0-2.497-0.199-3.641-0.567c-0.428-0.139-0.836-0.298-1.243-0.487c-4.079-1.85-6.924-5.969-6.924-10.744v-94.018
				c0-5.173,3.342-9.58,7.978-11.162c0.458-0.159,0.915-0.289,1.393-0.388c0.776-0.159,1.602-0.249,2.437-0.249h47.641
				C165.034,313.1,170.316,318.382,170.316,324.898z"/>
			<path style="fill:#D42138;" d="M104.513,423.587c0,2.19,0.534,4.255,1.481,6.077c-4.084-1.855-6.923-5.97-6.923-10.748V324.9
				c0-5.18,3.339-9.582,7.98-11.167c-1.596,2.184-2.538,4.874-2.538,7.783V423.587z"/>
			<g>
				<path style="fill:#D42138;" d="M160.557,326.691H115.96c-0.828,0-1.499-0.671-1.499-1.499l0,0c0-0.828,0.671-1.499,1.499-1.499
					h44.597c0.828,0,1.499,0.671,1.499,1.499l0,0C162.056,326.02,161.385,326.691,160.557,326.691z"/>
				<path style="fill:#D42138;" d="M160.557,336.769H115.96c-0.828,0-1.499-0.671-1.499-1.499l0,0c0-0.828,0.671-1.499,1.499-1.499
					h44.597c0.828,0,1.499,0.671,1.499,1.499l0,0C162.056,336.098,161.385,336.769,160.557,336.769z"/>
				<path style="fill:#D42138;" d="M160.557,346.848H115.96c-0.828,0-1.499-0.671-1.499-1.499l0,0c0-0.828,0.671-1.499,1.499-1.499
					h44.597c0.828,0,1.499,0.671,1.499,1.499l0,0C162.056,346.177,161.385,346.848,160.557,346.848z"/>
				<path style="fill:#D42138;" d="M160.557,356.926H115.96c-0.828,0-1.499-0.671-1.499-1.499l0,0c0-0.828,0.671-1.499,1.499-1.499
					h44.597c0.828,0,1.499,0.671,1.499,1.499l0,0C162.056,356.255,161.385,356.926,160.557,356.926z"/>
				<path style="fill:#D42138;" d="M160.557,367.004H115.96c-0.828,0-1.499-0.671-1.499-1.499l0,0c0-0.828,0.671-1.499,1.499-1.499
					h44.597c0.828,0,1.499,0.671,1.499,1.499l0,0C162.056,366.333,161.385,367.004,160.557,367.004z"/>
			</g>
			<g>
				<g>
					<path style="fill:#211931;" d="M116.335,313.098v-32.276c0-1.653,1.345-2.998,2.998-2.998h32.417
						c1.653,0,2.998,1.345,2.998,2.998v32.276h1.124v-32.276c0-2.273-1.849-4.122-4.122-4.122h-32.417
						c-2.273,0-4.122,1.849-4.122,4.122v32.276H116.335z"/>
				</g>
				<g>
					<path style="fill:#2F374B;" d="M115.773,288.411c-1.242,0-2.248-1.007-2.248-2.249v-5.34c0-3.203,2.606-5.809,5.809-5.809
						h32.417c3.203,0,5.809,2.606,5.809,5.809v5.153c0,1.242-1.007,2.249-2.249,2.249c-1.242,0-2.249-1.007-2.249-2.249v-5.153
						c0-0.723-0.588-1.312-1.312-1.312h-32.417c-0.723,0-1.312,0.589-1.312,1.312v5.34
						C118.022,287.404,117.015,288.411,115.773,288.411z"/>
				</g>
			</g>
			<path style="fill:#D42138;" d="M164.108,379.274v50.038c-1.661,0.895-3.571,1.403-5.591,1.403h-46.109v-51.441
				c0-3.332,2.726-6.048,6.058-6.048h39.583C161.383,373.225,164.108,375.941,164.108,379.274z"/>
		</g>
		<g>
			<path style="fill:#2F374B;" d="M295.583,275.035h-25.484c-3.191,0-5.786,2.948-5.786,6.572v4.31c0,1.536,1.245,2.781,2.781,2.781
				l0,0c1.536,0,2.781-1.245,2.781-2.781v-4.31c0-0.142,0.101-0.258,0.224-0.258h25.484c0.123,0,0.227,0.118,0.227,0.258v4.311
				c0,1.535,1.245,2.78,2.78,2.78l0,0c1.535,0,2.78-1.245,2.78-2.78v-4.311C301.369,277.983,298.774,275.035,295.583,275.035z"/>
			<rect x="265.892" y="288.696" style="fill:#211931;" width="2.512" height="38.241"/>
			<rect x="297.382" y="288.696" style="fill:#211931;" width="2.512" height="38.241"/>
			<path style="fill:#75B000;" d="M319.366,322.909v95.981c0,5.418-3.669,9.811-8.196,9.811h-55.666
				c-4.527,0-8.196-4.393-8.196-9.811v-95.981c0-5.42,3.669-9.811,8.196-9.811h55.666
				C315.697,313.098,319.366,317.489,319.366,322.909z"/>
			<path style="fill:#93C000;" d="M319.366,322.909v95.981c0,5.418-3.669,9.811-8.196,9.811h-50.142
				c-4.527,0-8.196-4.393-8.196-9.811v-95.981c0-5.42,3.669-9.811,8.196-9.811h50.142
				C315.697,313.098,319.366,317.489,319.366,322.909z"/>
			<path style="fill:#75B000;" d="M301.202,418.723h-31.544c-4.567,0-8.269-3.702-8.269-8.269v-8.939
				c0-4.567,3.702-8.269,8.269-8.269h31.544c4.567,0,8.269,3.702,8.269,8.269v8.939
				C309.471,415.021,305.768,418.723,301.202,418.723z"/>
			<path style="fill:#75B000;" d="M301.202,385.324h-31.544c-4.567,0-8.269-3.702-8.269-8.269v-31.693
				c0-4.567,3.702-8.269,8.269-8.269h31.544c4.567,0,8.269,3.702,8.269,8.269v31.693
				C309.471,381.622,305.768,385.324,301.202,385.324z"/>
			<path style="fill:#75B000;" d="M307.683,328.744h-44.506c-1.086,0-1.967-0.88-1.967-1.967v-0.174c0-1.086,0.88-1.967,1.967-1.967
				h44.506c1.086,0,1.967,0.88,1.967,1.967v0.174C309.649,327.864,308.769,328.744,307.683,328.744z"/>
			<g>
				<path style="fill:#211931;" d="M272.734,434.233c0,3.001-2.433,5.434-5.434,5.434c-3.001,0-5.434-2.433-5.434-5.434
					s2.433-5.434,5.434-5.434C270.302,428.798,272.734,431.232,272.734,434.233z"/>
				<path style="fill:#2F374B;" d="M272.201,434.233H262.4c-2.833,0-5.129-2.296-5.129-5.129v-0.37h20.059v0.37
					C277.33,431.936,275.034,434.233,272.201,434.233z"/>
			</g>
			<g>
				<path style="fill:#211931;" d="M307.306,434.233c0,3.001-2.433,5.434-5.434,5.434c-3.001,0-5.434-2.433-5.434-5.434
					s2.433-5.434,5.434-5.434C304.873,428.798,307.306,431.232,307.306,434.233z"/>
				<path style="fill:#2F374B;" d="M306.773,434.233h-9.802c-2.832,0-5.129-2.296-5.129-5.129v-0.37h20.059v0.37
					C311.902,431.936,309.605,434.233,306.773,434.233z"/>
			</g>
		</g>
	</g>
	<g>
		<g>
			<path style="fill:#2F374B;" d="M196.484,122.499c0,7.796-6.318,14.116-14.113,14.116c-3.007,0-5.791-0.939-8.081-2.543
				c-3.648-2.551-6.035-6.782-6.035-11.573c0-7.795,6.32-14.116,14.116-14.116c5.945,0,11.029,3.675,13.11,8.878
				C196.129,118.88,196.484,120.646,196.484,122.499z"/>
			<path style="fill:#0386FD;" d="M196.484,122.499c0,7.796-6.318,14.116-14.113,14.116c-3.007,0-5.791-0.939-8.081-2.543
				c0.747-3.281,3.089-10.582,9.569-14.233c4.07-2.295,8.31-2.739,11.622-2.578C196.129,118.88,196.484,120.646,196.484,122.499z"/>
		</g>
		<g>
			<path style="fill:#75B000;" d="M157.745,176.443c0,0-9.1,4.631-9.128,18.127c-0.028,13.496,10.684,11.35,10.684,11.35
				S161.797,193.647,157.745,176.443z"/>
			<path style="fill:#93C000;" d="M219.446,173.076c-20.753-3.342-41.33-2.457-61.701,3.367c0,0-3.989,44.179,1.406,73.917
				c1.695,9.342,9.801,16.15,19.295,16.249c13.336,0.139,32.459-0.693,43.329-5.834C225.147,234.02,223.185,204.419,219.446,173.076
				z"/>
			<path style="fill:#75B000;" d="M174.888,257.768c-5.791-4.295-8.138-9.111-10.565-18.254c-1.757-6.622-2.641-14.198-2.653-28.007
				c-0.012-13.324,0.696-25.143,1.109-30.891c13.088-3.348,26.639-4.672,40.338-3.935c3.784,0.203,7.637,0.567,11.498,1.084
				c2.71,23.562,5.11,52.79,2.219,79.275c-11.845,4.28-20.65,4.883-29.208,4.713c-3.19-0.064-6.086-0.021-9.421-2.051
				C178.158,259.674,174.932,257.801,174.888,257.768z"/>
		</g>
		<path style="fill:#FBAB7F;" d="M213.083,175.847c0,0,10.129,6.129,15.012,11.774l-12.865,6.639L213.083,175.847z"/>
		<g>
			<g>
				<g>
					<path style="fill:#FBAB7F;" d="M220.271,410.774l-0.962,11.465c0,0-2.559,4.078-8.443,1.821l0.3-13.286H220.271z"/>
					<g>
						<path style="fill:#0386FD;" d="M210.718,437.436c0.104,0.739,0.199,1.472,0.279,2.198h34.34c0-0.751-0.101-1.49-0.291-2.198
							c-0.57-2.106-1.944-3.943-3.875-5.077c-5.249-3.081-12.996-4.516-12.996-4.516c-2.229-2.094-8.866-5.604-8.866-5.604
							c-5.503,2.229-8.599,1.217-8.599,1.217C209.274,428.328,210.105,432.985,210.718,437.436z"/>
						<path style="fill:#005EDC;" d="M210.718,437.436c0.104,0.739,0.199,1.472,0.279,2.198h34.34c0-0.751-0.101-1.49-0.291-2.198
							H210.718z"/>
					</g>
				</g>
				<g>
					<g>
						<path style="fill:#211931;" d="M227.323,350.979l-7.053,64.376c-3.271,0.95-6.397,0.925-10.355-0.193
							c-2.424-27.986-6.664-57.399,1.517-67.356c-14.482-33.794-10.202-67.988-10.202-67.988c7.995-3.66,20.5-7.809,20.5-7.809
							C225.983,296.163,227.323,350.979,227.323,350.979z"/>
					</g>
				</g>
			</g>
			<g>
				<g>
					<path style="fill:#FBAB7F;" d="M182.771,410.774v10.952c0,0,2.712,2.911,8.596,0.654v-10.559L182.771,410.774z"/>
					<g>
						<path style="fill:#0386FD;" d="M164.232,439.634h26.828c0,0,0.301-0.85,0.611-2.344c0.625-2.975,1.292-8.505-0.304-14.91
							c0,0-6.517,0.896-8.596-0.654c0,0-2.518,0.742-8.076,5.539c0,0-9.407,2.099-10.411,10.025
							C164.189,438.019,164.166,438.801,164.232,439.634z"/>
						<path style="fill:#005EDC;" d="M164.232,439.634h26.828c0,0,0.301-0.85,0.611-2.344h-27.387
							C164.189,438.019,164.166,438.801,164.232,439.634z"/>
					</g>
				</g>
				<g>
					<g>
						<g>
							<path style="fill:#2F374B;" d="M204.314,279.818c0,0-2.476,38.323-7.496,71.316c-1.073,7.051-2.271,43.776-4.46,64.903
								c-3.697,0.387-7.065,0.573-10.497-0.585l-3.202-63.187c0,0-5.668-45.02-0.451-75.471L204.314,279.818z"/>
						</g>
					</g>
					<g>
						<path style="fill:#2F374B;" d="M179.153,268.827c-1.035,5.471-1.938,14.612,0.824,23.802c0,0,19.267,4.786,32.818-5.975
							c8.866-7.042,9.284-15.283,9.178-17.827H179.153z"/>
					</g>
				</g>
			</g>
		</g>
		<g>
			<path style="fill:#FD4A36;" d="M223.748,269.834c-23.356,11.896-46.696,1.99-46.696,1.99c3.206-20.322,5-46.936,5-46.936
				c-4.015-16.79-8.071-46.148-8.071-46.148c4.731-1.905,5.177-1.626,9.488-2.763c1.216-0.322,2.335-0.592,3.29-0.811
				c1.955-0.447,3.22-0.676,3.22-0.676c5.893-0.802,12.022-0.373,16.484,0.205c0.03,0.005,0.061,0.007,0.091,0.012
				c3.915,0.513,6.527,1.139,6.527,1.139s1.794,13.548,5.665,20.402c3.87,6.853,0.911,10.999,0,13.986
				c-0.175,0.573-0.282,1.354-0.34,2.242c-0.256,3.742-0.576,21.357-0.576,21.357L223.748,269.834z"/>
			<path style="fill:#FBAB7F;" d="M201.939,187.617c-6.41,0.198-12.152-6.998-15.179-12.451c1.955-0.447,3.22-0.676,3.22-0.676
				c5.893-0.802,12.022-0.373,16.484,0.205c0.03,0.005,0.061,0.007,0.091,0.012C207.336,180.191,208.688,187.408,201.939,187.617z"
				/>
			<path style="fill:#D42138;" d="M218.746,210.236c-0.174,0.571-0.282,1.353-0.339,2.24c-11.323,5.822-23.054,2.501-23.054,2.501
				C210.592,214.718,218.746,210.236,218.746,210.236z"/>
			<g>
				<g>
					<path style="fill:#93C000;" d="M181.408,233.271c-0.992-0.763-0.854-5.998-0.871-7.844c-0.034-3.676,0.327-5.844,0.327-5.844
						c6.855-15.777-2.387-42.407-2.387-42.407c0.578-1.329,2.289-2.035,3.528-2.239c2.683-0.442,4.259,0.345,4.259,0.345
						C194.542,212.013,181.408,233.271,181.408,233.271z"/>
				</g>
				<g>
					<path style="fill:#93C000;" d="M217.831,233.834l0.108-5.466l0.207-8.796c1.316-22.637-10.484-44.712-10.484-44.712
						c0.902-0.449,2.827-0.666,3.668-0.551c3.246,0.428,4.782,3.484,4.782,3.484C229.316,218.3,217.831,233.834,217.831,233.834z"/>
				</g>
			</g>
		</g>
		<g>
			<polygon style="fill:#0386FD;" points="254.159,229.137 225.6,242.828 189.294,237.503 188.524,178.044 228.093,181.447 
				257.503,174.05 			"/>
			<polygon style="fill:#005EDC;" points="225.646,242.033 254.158,229.136 255.638,204.807 257.505,174.05 228.095,181.447 
				226.562,213.078 			"/>
		</g>
		<g>
			<path style="fill:#FBAB7F;" d="M182.37,223.497c0,0-8.78,2.429-12.89,1.373l-2.19-20.644c-0.61-11.291-1.768-20.338,6.691-25.486
				l0.484,2.382c0.661,2.801,1.291,6.402,1.825,9.633c1.465,8.881,2.662,15.594,3.599,20.578c0.231,1.232,0.447,2.359,0.648,3.387
				C181.536,219.847,182.139,222.499,182.37,223.497z"/>
			<path style="fill:#F48568;" d="M180.537,214.721l-8.113,7.85c0,0,2.337-6.596,7.465-11.238
				C180.12,212.565,180.336,213.693,180.537,214.721z"/>
			<path style="fill:#FBAB7F;" d="M169.48,224.871c0,0-0.111,9.49,5.571,11.359c5.682,1.869,14.12-10.76,18.749-22.958l-6.161-6.766
				C181.582,215.581,177.92,215.922,169.48,224.871z"/>
			<path style="fill:#FBAB7F;" d="M192.196,202.775l-0.593-4.329c0,0-4.515,5.543-3.964,8.06c0.551,2.517,1.218,10.741,5.191,9.813
				c3.972-0.928,6.209-3.785,5.557-7.701C197.325,202.248,192.196,202.775,192.196,202.775z"/>
		</g>
		<path style="fill:#FBAB7F;" d="M255.932,200.142l0.265-4.363c0,0,3.224,5.879,2.65,8.391c-0.574,2.512,0.291,10.473-3.673,9.509
			c-3.964-0.964-6.174-3.841-5.486-7.752C250.807,199.569,255.932,200.142,255.932,200.142z"/>
		<g>
			<g>
				<g>
					<g>
						<g>
							<path style="fill:#F48568;" d="M209.434,144.057c0,0,3.707-4.232,6.731-0.556c2.66,3.234,1.004,11.793-5.477,11.555
								L209.434,144.057z"/>
						</g>
					</g>
					<g>
						<g>
							<path style="fill:#FBAB7F;" d="M189.836,175.634c4.501,1.797,8.844,1.956,12.98,0l0.127-1.729l0.724-9.853l-14.644-2.841
								l0.352,6.249L189.836,175.634z"/>
						</g>
						<g>
							<path style="fill:#F48568;" d="M202.855,175.093c-5,0.069-10.582-3.377-13.374-5.755l-0.458-8.127l14.644,2.841
								L202.855,175.093z"/>
						</g>
					</g>
					<g>
						<path style="fill:#FBAB7F;" d="M197.185,168.621c-15.456-3.536-18.264-23.795-18.264-23.795s-0.048-1.356,0.207-3.331
							c0.142-1.085,0.374-2.357,0.754-3.696c1.109-3.893,3.488-8.331,8.568-10.267c0.159-0.061,0.32-0.121,0.482-0.177
							c8.428-2.988,20.751-1.591,24.499,9.569c0.222,0.662,0.412,1.386,0.571,2.16c0.089,0.439,0.169,0.896,0.236,1.365
							C215.92,151.968,211.077,171.8,197.185,168.621z"/>
					</g>
					<g>
						<g>
							<g>
								<path style="fill:#2F374B;" d="M194.108,147.926c-1.085,0.154-2.09-0.6-2.244-1.685c-0.056-0.383,0.005-0.757,0.154-1.087
									c-1.624-0.191-1.591-1.176-1.591-1.176c0.253,0.422,2.15,0.176,2.936,0.056h0.005c0.097-0.017,0.176-0.029,0.234-0.038
									c0.002,0,0.007,0,0.01-0.002c0.031-0.005,0.063-0.007,0.094-0.007c1.022-0.067,1.94,0.665,2.087,1.7
									C195.947,146.769,195.193,147.771,194.108,147.926z"/>
							</g>
						</g>
					</g>
					<g>
						<path style="fill:#FBAB7F;" d="M181.582,145.238c0,0-5.546-3.04-7.323,2.009c-1.563,4.44,3.486,12.84,10.239,10.091
							L181.582,145.238z"/>
					</g>
					<g>
						<path style="fill:#F48568;" d="M181.928,153.669c-0.481-1.46-1.852-4.467-5.244-5.808c0,0,3.624,3.417,3.9,6.061
							c0.036,0.347,0.32,0.615,0.669,0.604l0.08-0.003C181.767,154.508,182.064,154.081,181.928,153.669z"/>
					</g>
					<g>
						<g>
							<g>
								<path style="fill:#2F374B;" d="M206.478,160.017c-0.233,0.52-0.55,1.033-0.978,1.486c-0.864,0.913-2.181,1.581-4.189,1.576
									c-1.687-0.005-3.009-0.94-3.99-2.06c-0.665-0.759-1.173-1.606-1.529-2.302c-0.431-0.841-0.64-1.467-0.64-1.467
									s8.09-0.252,11.963-0.823c0,0,0,0,0.001,0.002c0.002,0.042,0.048,0.701-0.08,1.589
									C206.953,158.62,206.788,159.326,206.478,160.017z"/>
							</g>
							<g>
								<path style="fill:#FFFFFF;" d="M207.036,158.019c-3.69,0.717-9.662,0.662-11.245,0.699c-0.431-0.841-0.64-1.467-0.64-1.467
									s8.09-0.252,11.963-0.823c0,0,0,0,0.001,0.002C207.118,156.472,207.164,157.131,207.036,158.019z"/>
							</g>
						</g>
						<g>
							<g>
								<path style="fill:#FD4A36;" d="M205.5,161.503c-0.864,0.913-2.181,1.581-4.189,1.576c-1.687-0.005-3.009-0.94-3.99-2.06
									c0.537-0.306,2.028-0.945,4.15-0.241c0,0,0.753-0.455,2.073-0.302C204.312,160.568,205.004,160.822,205.5,161.503z"/>
							</g>
						</g>
					</g>
					<g>
						<path style="fill:#F48568;" d="M200.489,165.434c-1.485-0.288-2.509-0.977-2.584-1.029c-0.206-0.141-0.257-0.422-0.116-0.628
							c0.141-0.205,0.422-0.258,0.627-0.117c0.121,0.083,2.901,1.932,5.839,0.37c0.22-0.117,0.493-0.033,0.61,0.187
							c0.117,0.22,0.034,0.493-0.187,0.61C203.155,165.638,201.675,165.664,200.489,165.434z"/>
					</g>
					<g>
						<path style="fill:#F48568;" d="M202.498,154.588h-2.346c-0.266,0-0.482-0.216-0.482-0.482c0-0.266,0.216-0.482,0.482-0.482
							h2.346c0.045,0,0.072-0.024,0.087-0.043c0.015-0.02,0.029-0.052,0.017-0.095l-1.948-6.669
							c-0.074-0.256,0.072-0.523,0.328-0.598c0.255-0.075,0.523,0.072,0.598,0.327l1.948,6.669c0.096,0.327,0.033,0.671-0.171,0.944
							C203.152,154.432,202.839,154.588,202.498,154.588z"/>
					</g>
					<path style="fill:#2F374B;" d="M196.58,139.784L196.58,139.784c0.102,0.532-0.273,1.039-0.813,1.092
						c-1.804,0.177-5.552,0.788-7.243,2.849c0,0,0.368-3.386,6.968-4.674C195.995,138.953,196.483,139.281,196.58,139.784z"/>
					<path style="fill:#2F374B;" d="M204.021,139.727L204.021,139.727c-0.007,0.542,0.451,0.976,0.991,0.934
						c1.807-0.14,5.604-0.193,7.629,1.541c0,0-0.954-3.27-7.677-3.386C204.452,138.807,204.027,139.215,204.021,139.727z"/>
					<g>
						<g>
							<g>
								<path style="fill:#2F374B;" d="M207.205,147.673c1.085,0.154,2.09-0.6,2.244-1.685c0.055-0.383-0.005-0.757-0.155-1.087
									c1.625-0.19,1.591-1.176,1.591-1.176c-0.253,0.422-2.15,0.176-2.936,0.055h-0.005c-0.096-0.017-0.176-0.029-0.234-0.039
									c-0.002,0-0.007,0-0.01-0.003c-0.031-0.005-0.063-0.007-0.094-0.007c-1.022-0.068-1.94,0.665-2.087,1.699
									C205.366,146.516,206.12,147.519,207.205,147.673z"/>
							</g>
						</g>
					</g>
					<path style="fill:#2F374B;" d="M189.799,128.436c0,0-0.777,13.565-7.101,19.041c0,0-0.545-3.598-5.468-3.058
						c0,0-0.465-0.842-1.188-4.922c-0.723-4.08,1.873-20.925,20.553-19.84c0,0,5.94-1.205,14.255,5.905
						c8.315,7.11,3.388,14.886,3.388,14.886S200.37,138.532,189.799,128.436z"/>
				</g>
			</g>
		</g>
	</g>
	<g>
		<g>
			<path style="fill:#005EDC;" d="M341.598,85.325c0,0,13.858-7.045,16.818-11.141c0,0,1.594-9.906,2.339-13.522
				c0.745-3.616,2.856-14.042,2.856-14.042l6.082,2.214c0,0,0.623,22.67-2.606,29.376c0,0-10.406,16.3-25.798,22.426
				C341.289,100.634,339.655,95.973,341.598,85.325z"/>
			<path style="fill:#FBAB7F;" d="M363.61,46.62c0,0-2.483-2.98-3.166-4.532c-0.683-1.552-1.594-5.402-1.055-6.209
				c0.538-0.807,2.483,0,2.732,1.614c0.248,1.614,1.49,2.156,1.49,2.156s0.579-7.806,1.987-9.461
				c1.407-1.656,7.533,0.745,7.367,5.629c-0.165,4.884-3.272,13.017-3.272,13.017S365.183,49.227,363.61,46.62z"/>
		</g>
		<g>
			<path style="fill:#D42138;" d="M281.89,111.078c0,0-1.853-0.168-2.238,2.775c-0.385,2.943-0.057,13.359,0.101,14.117
				c0.158,0.757,2.244,0.62,2.244,0.62S282.883,116.293,281.89,111.078z"/>
			<path style="fill:#D42138;" d="M282.517,129.446c0,0-1.915-0.058-2.367,2.253c-0.453,2.311,0.051,10.254,0.505,10.651
				c1.444,1.264,2.805,0.616,2.805,0.616S283.45,133.475,282.517,129.446z"/>
			<path style="fill:#D42138;" d="M281.986,106.557c0,0-1.134,36.857,2.838,41.994c1.165,1.505,4.975,2.176,9.859,2.232
				c11.759,0.13,29.742-3.319,32.003-7.327c3.197-5.667-1.88-52.323-1.88-52.323s1.704-8.24-4.425-13.343
				c-5.077-4.227-27.07,0.442-35.792,7.919c-1.805,1.548-3.043,3.214-3.445,4.947C278.8,100.764,281.986,106.557,281.986,106.557z"
				/>
			<path style="fill:#FD4A36;" d="M281.986,106.557c0,0-1.134,36.857,2.838,41.994c1.165,1.505,4.975,2.176,9.859,2.232
				c5.111-9.41-3.579-43.808-3.579-43.808s2.78-4.748,1.704-13.427c-1.076-8.682-8.22-7.839-8.22-7.839
				c-1.805,1.548-3.043,3.214-3.445,4.947C278.8,100.764,281.986,106.557,281.986,106.557z"/>
			<g>
				<path style="fill:#D42138;" d="M298.59,80.53c-0.015-0.177-0.334-4.387,2.778-4.988c3.323-0.638,6.237,3.391,6.266,3.431
					l1.319-0.937c-0.143-0.201-3.551-4.918-7.892-4.083c-3.637,0.703-4.261,4.702-4.083,6.719L298.59,80.53z"/>
			</g>
		</g>
		<g>
			<path style="fill:#0386FD;" d="M314.03,78.209l-19.111,9.399l6.204,34.664l-4.043,29.757c0,0,29.324,11.091,44.406,4.146
				l0.11-70.849l-17.764-6.066L314.03,78.209z"/>
			<path style="fill:#FD4A36;" d="M328.67,80.808c2.489,8.651,6.846,19.511,12.856,50.63c0.547,0.202,0.791-15.331,0.072-21.695
				c-1.492-13.204-4.178-25.845-4.178-25.845S333.934,79.525,328.67,80.808z"/>
			<path style="fill:#FD4A36;" d="M308.161,81.096c0,0,7.997,41.89-8.867,54.643c0,0-0.192-4.724,1.415-10.415
				c0,0,4.457-19.557,0.207-40.78C300.917,84.544,304.072,80.464,308.161,81.096z"/>
		</g>
		<g>
			<g>
				<g>
					<path style="fill:#FBAB7F;" d="M324.777,72.288l-0.569,7.617l-0.261,3.491c-4.453,3.167-9.778-1.222-9.778-1.222l-2.133-12.172
						c2.058-1.332,7.12,0.546,10.251,1.477C323.764,71.918,324.777,72.288,324.777,72.288z"/>
				</g>
			</g>
			<g>
				<g>
					<path style="fill:#F48568;" d="M324.777,72.288l-0.569,7.617c-5.136-1.288-9.322-8.515-9.322-8.515l7.402,0.089
						C323.764,71.918,324.777,72.288,324.777,72.288z"/>
				</g>
			</g>
			<g>
				<g>
					<path style="fill:#FBAB7F;" d="M341.289,51.948c-0.003,0.269-0.005,0.554-0.008,0.836v0.039
						c-0.018,0.92-0.055,1.874-0.115,2.851c-0.005,0.091-0.013,0.183-0.018,0.274c-0.094,1.558-0.238,3.168-0.408,4.783
						c-0.039,0.347-0.078,0.695-0.118,1.043c-0.128,1.121-0.269,2.237-0.418,3.335c-0.029,0.219-0.06,0.436-0.091,0.656
						c-0.06,0.436-0.123,0.868-0.185,1.296c-0.136,0.936-0.277,1.85-0.418,2.731c-0.888,5.556-6.191,9.29-11.724,8.24
						c-5.451-1.032-11.01-2.451-15.259-4.278c0,0-0.06-0.123-0.167-0.358c-0.429-0.943-1.61-3.705-2.543-7.618
						c-0.993-4.155-1.704-9.601-0.938-15.528c1.665-12.873,28.88-14.031,32.061-3.421c0.021,0.123,0.044,0.246,0.063,0.374
						C341.208,48.571,341.294,50.187,341.289,51.948z"/>
				</g>
			</g>
			<g>
				<g>
					<g>
						<path style="fill:#2F374B;" d="M334.52,70.321c-0.284,0.423-0.641,0.826-1.086,1.159c-0.898,0.672-2.159,1.059-3.925,0.75
							c-1.483-0.26-2.505-1.284-3.197-2.418c-0.47-0.769-0.788-1.591-0.996-2.258c-0.251-0.806-0.34-1.388-0.34-1.388
							s7.156,1.007,10.65,1.093c0,0,0,0,0.001,0.002c-0.005,0.037-0.064,0.624-0.312,1.386
							C335.149,69.164,334.897,69.76,334.52,70.321z"/>
					</g>
					<g>
						<path style="fill:#FFFFFF;" d="M335.314,68.648c-3.355,0.07-8.601-0.885-9.999-1.093c-0.251-0.806-0.34-1.388-0.34-1.388
							s7.156,1.007,10.65,1.093c0,0,0,0,0.001,0.002C335.621,67.299,335.561,67.886,335.314,68.648z"/>
					</g>
				</g>
				<g>
					<g>
						<path style="fill:#FD4A36;" d="M333.433,71.48c-0.898,0.672-2.159,1.059-3.925,0.75c-1.483-0.26-2.505-1.284-3.197-2.418
							c0.519-0.188,1.928-0.523,3.687,0.419c0,0,0.731-0.286,1.869,0.049C332.53,70.476,333.1,70.805,333.433,71.48z"/>
					</g>
				</g>
			</g>
			<path style="fill:#2F374B;" d="M326.564,58.594c0,0.775-0.629,1.404-1.404,1.404c-0.775,0-1.404-0.629-1.404-1.404
				c0-0.775,0.629-1.404,1.404-1.404C325.936,57.19,326.564,57.819,326.564,58.594z"/>
			<path style="fill:#2F374B;" d="M337.999,58.594c0,0.775-0.628,1.404-1.404,1.404c-0.775,0-1.404-0.629-1.404-1.404
				c0-0.775,0.629-1.404,1.404-1.404C337.37,57.19,337.999,57.819,337.999,58.594z"/>
			<path style="opacity:0.5;fill:#F48568;" d="M322.809,63.62c0,1.61-1.798,2.915-4.016,2.915c-2.218,0-4.016-1.305-4.016-2.915
				c0-1.61,1.798-2.916,4.016-2.916C321.011,60.705,322.809,62.01,322.809,63.62z"/>
			<path style="opacity:0.5;fill:#F48568;" d="M340.74,60.731c-0.039,0.347-0.078,0.695-0.118,1.043
				c-0.128,1.121-0.269,2.237-0.418,3.335c-0.029,0.219-0.06,0.436-0.091,0.656c-0.037,0.256-0.076,0.512-0.112,0.768
				c-2.138-0.068-3.839-1.348-3.839-2.914c0-1.61,1.798-2.917,4.017-2.917C340.369,60.703,340.557,60.713,340.74,60.731z"/>
			<path style="fill:#2F374B;" d="M341.435,51.97c-0.06,0.267-0.15,0.53-0.154,0.813c-1.733-1.583-1.289-5.578-1.289-5.578
				c0.366-0.053,0.702-0.053,1.009-0.005C341.456,48.323,341.941,49.708,341.435,51.97z"/>
			<path style="fill:#2F374B;" d="M312.361,73.394c-0.431-0.943-1.611-3.706-2.545-7.616l2.726,1.007
				C312.542,66.785,313.365,71.017,312.361,73.394z"/>
			<g>
				<g>
					<g>
						<path style="fill:#FBAB7F;" d="M312.923,57.374c0,0-3.15-3.727-5.724-1.516c-2.836,2.436-0.546,10.556,5.273,10.303
							L312.923,57.374z"/>
					</g>
				</g>
				<g>
					<g>
						<path style="fill:#F48568;" d="M312.557,64.391c-0.24-0.015-0.444-0.199-0.476-0.447c-0.528-4.16-3.049-4.738-3.074-4.743
							c-0.277-0.058-0.454-0.33-0.395-0.607c0.058-0.277,0.329-0.455,0.607-0.396c0.132,0.028,3.26,0.742,3.879,5.617
							c0.035,0.281-0.163,0.537-0.444,0.573C312.621,64.393,312.589,64.394,312.557,64.391z"/>
					</g>
				</g>
				<g>
					<g>
						<path style="fill:#F48568;" d="M309.256,61.817c-0.11-0.007-0.217-0.049-0.305-0.126c-0.211-0.186-0.234-0.505-0.05-0.718
							c0.041-0.048,1.039-1.178,2.728-0.823c0.277,0.058,0.455,0.329,0.397,0.606c-0.058,0.277-0.331,0.456-0.606,0.397
							c-1.081-0.222-1.721,0.465-1.747,0.495C309.563,61.769,309.408,61.827,309.256,61.817z"/>
					</g>
				</g>
			</g>
			<g>
				<g>
					<path style="fill:#F48568;" d="M329.929,74.935c-2.835-0.179-4.258-2.005-4.329-2.098c-0.207-0.273-0.154-0.663,0.119-0.87
						c0.273-0.207,0.661-0.154,0.869,0.117c0.073,0.093,1.68,2.102,4.973,1.514c0.338-0.061,0.66,0.165,0.72,0.503
						c0.06,0.338-0.164,0.66-0.503,0.72C331.107,74.941,330.49,74.97,329.929,74.935z"/>
				</g>
			</g>
			<g>
				<g>
					<path style="fill:#F48568;" d="M331.352,65.261c-0.162-0.01-0.319-0.087-0.427-0.225c-0.2-0.256-0.155-0.625,0.101-0.826
						l1.554-1.215l-1.363-0.337c-0.227-0.056-0.399-0.241-0.439-0.471l-0.643-3.736c-0.055-0.32,0.16-0.624,0.48-0.679
						c0.321-0.056,0.625,0.16,0.679,0.48l0.578,3.357l2.163,0.534c0.219,0.054,0.387,0.228,0.435,0.448
						c0.047,0.22-0.036,0.448-0.213,0.586l-2.506,1.96C331.632,65.23,331.49,65.27,331.352,65.261z"/>
				</g>
			</g>
			<path style="fill:#2F374B;" d="M325.59,39.664c-9.713-0.711-13.553,3.57-13.553,3.57s-3.256,0.734-4.139,3.898
				c-0.883,3.164,0.657,8.068,0.657,8.068c4.285,0.073,5.225,7.191,6.623,5.941c1.398-1.251-0.074-6.404-0.074-6.404
				c1.913-1.547,2.479-4.763,2.479-4.763c4.967,0.508,14.614-4.694,21.171-2.561c3.431,1.116,3.418-0.972,2.535-2.738
				C336.627,40.646,333.113,39.886,325.59,39.664z"/>
			<path style="fill:#2F374B;" d="M326.876,53.31v1.921c0,0-3.514-0.642-5.9,0.844l-0.276-1.6
				C320.7,54.474,322.708,52.466,326.876,53.31z"/>
			<path style="fill:#2F374B;" d="M333.765,53.31v1.921c0,0,3.514-0.642,5.9,0.844l0.276-1.6
				C339.94,54.474,337.933,52.466,333.765,53.31z"/>
			<g>
				<g>
					<path style="fill:#D42138;" d="M341.642,50.481c0,0-0.491-5.84-7.578-5.84c-7.087,0-13.755,5.334-23.341,2.538
						c0,0,7.776-2.444,11.719-4.462c11.123-5.691,19.398-3.413,21.879-1.188C346.803,43.753,345.77,46.321,341.642,50.481z"/>
					<path style="fill:#FD4A36;" d="M341.642,50.481c0,0,5.885-6,0.008-7.711c-9.372-2.728-16.555,0.644-21.918,3.496
						c-5.362,2.852-9.01,0.831-9.01,0.831s12.594-6.571,18.16-8.581C341.165,34.084,353.966,41.653,341.642,50.481z"/>
				</g>
				<path style="fill:#FD4A36;" d="M337.759,38.457c0,0-6.429-7.512-17.712-5.533c-8.709,1.528-12.926,8.005-11.975,13.69
					c0,0,4.296,3.868,16.795-5.419C329.148,38.013,337.759,38.457,337.759,38.457z"/>
			</g>
		</g>
		<path style="fill:#2F374B;" d="M297.081,152.029c0,0,0.144,18.064,13.099,19.454c12.955,1.39,27.617,0.877,29.926-17.498
			L297.081,152.029z"/>
		<g>
			<g>
				<g>
					<path style="fill:#FBAB7F;" d="M366.411,346.539l-6.638,73.378c-4.21,2.53-7.101,2.245-9.719,1.376
						c-2.506-28.924-7.163-54.801-2.607-74.754c-4.591-22.493-8.003-73.547-8.003-73.547c8.263-3.783,21.879-1.784,21.879-1.784
						C365.719,296.172,366.411,346.539,366.411,346.539z"/>
				</g>
				<g>
					<path style="fill:#FBAB7F;" d="M336.034,272.992c0,0-0.279,29.463-4.46,73.547c-2.725,24.02-7.017,54.69-10.385,74.754
						c-4.451,0.866-6.505,0.331-9.109-0.693l-2.005-74.061c0,0-2.481-45.675,2.911-77.147L336.034,272.992z"/>
				</g>
				<g>
					<path style="fill:#211931;" d="M339.444,295.219l3.792,48.089c0,0,17.467,1.884,26.099-4.407l-3.229-68.48L339.444,295.219z"/>
					<path style="fill:#2F374B;" d="M342.453,338.845l0.091,5.4c0,0,18.445,1.545,28.175-4.768l-0.605-4.647
						C370.114,334.83,355.828,340.658,342.453,338.845z"/>
				</g>
				<path style="fill:#2F374B;" d="M308.79,269.165c0,0-0.618,24.805,9.575,28.099c10.193,3.294,42.251-0.715,48.115-28.438
					L308.79,269.165z"/>
				<g>
					<path style="fill:#2F374B;" d="M309.186,277.733l-4.838,62.987c0,0,23.646,6.163,30.187,1.141l2.242-46.964
						C336.776,294.897,323.599,279.885,309.186,277.733z"/>
					<path style="fill:#45546C;" d="M304.158,334.527l-1.179,6.579c0,0,18.75,6.887,32.075,1.543l0.236-5.403
						C335.29,337.246,319.215,341.814,304.158,334.527z"/>
				</g>
				<g>
					<path style="fill:#FD4A36;" d="M349.581,437.004c0.125,0.884,0.238,1.761,0.334,2.631h41.094c0-0.899-0.121-1.783-0.349-2.631
						c-0.682-2.521-2.326-4.718-4.637-6.076c-6.281-3.687-15.552-5.404-15.552-5.404c-2.667-2.506-10.61-6.707-10.61-6.707
						c-6.586,2.667-10.291,1.457-10.291,1.457C347.853,426.104,348.847,431.677,349.581,437.004z"/>
					<path style="fill:#D42138;" d="M349.581,437.004c0.125,0.884,0.238,1.761,0.334,2.631h41.094c0-0.899-0.121-1.783-0.349-2.631
						H349.581z"/>
				</g>
				<g>
					<path style="fill:#FD4A36;" d="M291.249,439.634h30.103c0,0,0.338-0.954,0.686-2.631c0.701-3.339,1.449-9.543-0.341-16.73
						c0,0-7.312,1.005-9.645-0.734c0,0-2.825,0.833-9.062,6.215c0,0-10.555,2.355-11.681,11.249
						C291.201,437.822,291.176,438.699,291.249,439.634z"/>
					<path style="fill:#D42138;" d="M291.249,439.634h30.103c0,0,0.338-0.954,0.686-2.631h-30.73
						C291.201,437.822,291.176,438.699,291.249,439.634z"/>
				</g>
			</g>
			<g>
				<g>
					<g>
						<g>
							<g>
								<g>
									<g>
										<path style="fill:#2F374B;" d="M418.564,277.722l-18.336,18.543c-0.473,0.478-1.245,0.484-1.725,0.01l-11.932-11.799
											c-0.479-0.473-0.483-1.247-0.01-1.725l18.336-18.543c0.473-0.478,1.247-0.483,1.726-0.01l11.932,11.799
											C419.034,276.471,419.037,277.244,418.564,277.722z"/>
										<path style="fill:#FFFFFF;" d="M408.256,276.188c-0.017-0.019-0.034-0.036-0.052-0.054
											c-2.751-2.72-7.202-2.695-9.922,0.056c-2.72,2.751-2.696,7.203,0.055,9.923c0.018,0.018,0.035,0.035,0.054,0.052
											c2.754,2.667,7.168,2.625,9.87-0.107C410.963,283.325,410.955,278.912,408.256,276.188z M406.675,275.643
											c-0.469,0.014-0.948,0.066-1.427,0.154c-0.647,0.119-1.281,0.309-1.884,0.561l-1.537-1.52
											C403.49,274.46,405.239,274.75,406.675,275.643z M401.202,275.013l1.614,1.596c-0.752,0.378-1.442,0.858-2.051,1.43
											l-1.77-1.75C399.642,275.719,400.384,275.288,401.202,275.013z M398.591,276.683l1.776,1.756
											c-0.595,0.626-1.092,1.298-1.48,1.995l-1.641-1.623C397.55,278.018,398.002,277.303,398.591,276.683z M397.051,279.411
											l1.567,1.549c-0.374,0.797-0.612,1.62-0.706,2.448c-0.048,0.427-0.059,0.851-0.032,1.262
											C396.871,283.134,396.564,281.196,397.051,279.411z M398.565,285.482c-0.115-0.491-0.388-2.112,0.481-4.098l1.806,1.786
											L398.565,285.482z M401.248,282.769l-1.944-1.922c0.373-0.701,0.864-1.377,1.464-2.011l2.209,2.185L401.248,282.769z
											 M403.374,280.619l-2.207-2.182c0.613-0.572,1.31-1.045,2.075-1.407l1.861,1.84L403.374,280.619z M405.499,278.47
											l-1.698-1.679c0.496-0.191,1.012-0.338,1.535-0.435c1.017-0.19,1.815-0.158,2.132-0.132
											c0.045,0.039,0.091,0.078,0.135,0.119L405.499,278.47z M408.151,285.344l-1.722-1.703c0.565-0.615,1.038-1.31,1.406-2.068
											l1.569,1.551C409.137,283.945,408.717,284.691,408.151,285.344z M409.572,282.498l-1.491-1.474
											c0.246-0.606,0.428-1.243,0.539-1.891c0.082-0.469,0.127-0.94,0.138-1.402
											C409.632,279.143,409.926,280.861,409.572,282.498z M408.004,276.739c0.056,0.061,0.112,0.124,0.168,0.188
											c0.041,0.458,0.106,1.957-0.528,3.663l-1.743-1.723L408.004,276.739z M405.503,279.267l1.907,1.885
											c-0.351,0.768-0.815,1.47-1.383,2.091l-2.253-2.228L405.503,279.267z M403.378,281.416l2.255,2.23
											c-0.624,0.604-1.295,1.104-1.995,1.486l-1.989-1.967L403.378,281.416z M398.939,285.905l2.314-2.34l1.852,1.832
											c-0.673,0.306-1.365,0.505-2.059,0.594C399.963,286.13,399.178,285.967,398.939,285.905z M399.858,286.602
											c0.404,0.021,0.818,0.003,1.235-0.048c0.827-0.103,1.647-0.35,2.44-0.733l1.519,1.502
											C403.281,287.831,401.408,287.568,399.858,286.602z M404.056,285.546c0.693-0.396,1.358-0.901,1.979-1.502l1.73,1.71
											c-0.614,0.596-1.324,1.055-2.115,1.367L404.056,285.546z"/>
										<path style="fill:#211931;" d="M408.133,265.691l-20.052,20.278l-1.509-1.493c-0.479-0.473-0.483-1.247-0.01-1.725
											l18.336-18.543c0.473-0.478,1.247-0.483,1.726-0.01L408.133,265.691z"/>
									</g>
								</g>
							</g>
						</g>
						<path style="fill:#FBAB7F;" d="M398.314,274.081c-3.633-3.092,0.037-3.253,0.037-3.253l4.253-4.301l-9.426-3.891
							c-0.944-0.694-1.279-1.26-1.732-2.07c-3.583,1.367-5.338,2.389-7.125,5.443c1.936,4.833,5.568,7.726,10.128,10.377
							C399.689,279.432,401.946,277.176,398.314,274.081z"/>
					</g>
					<path style="fill:#75B000;" d="M369.944,222.521c-4.53-38.979-13.348-54.583-13.348-54.583
						c-7.978,32.636-1.751,50.382,0.931,58.894c2.682,8.511,26.726,40.043,26.726,40.043c1.759-1.994,5.65-4.239,8.151-5.315
						c0,0-8.451-14.005-11.219-19.165C378.418,237.235,369.944,222.521,369.944,222.521z"/>
				</g>
				<g>
					<g>
						<g>
							<g>
								<path style="fill:#93C000;" d="M304.79,272.377c20.64,12.732,44.575,8.526,63.298-0.232l-11.491-104.207l-12.103-1.617
									l-0.971-0.13l-2.753-0.366l-10.438-2.74l-9.33,1.453l-3.59,1.23l-0.859,0.294l-15.995,5.479l10.692,62.442L304.79,272.377z"
									/>
							</g>
						</g>
					</g>
				</g>
				<g>
					<g>
						<g>
							<path style="fill:#2F374B;" d="M353.542,120.216c0,0,4.153,2.736,2.667,10.174c-1.486,7.438-4.361,8.232-4.361,8.232
								S347.488,122.155,353.542,120.216z"/>
						</g>
					</g>
					<g>
						<g>
							<path style="fill:#FBAB7F;" d="M337.365,155.572l-0.81,9.384l-0.371,4.301c-5.535,3.842-14.173-1.938-14.173-1.938
								l-0.323-14.748c2.556-1.613,8.772,0.774,12.62,1.967C336.121,155.102,337.365,155.572,337.365,155.572z"/>
						</g>
					</g>
					<g>
						<g>
							<path style="fill:#F48568;" d="M337.365,155.572l-0.81,9.384c-6.314-1.661-11.374-10.633-11.374-10.633l9.127,0.215
								C336.121,155.102,337.365,155.572,337.365,155.572z"/>
						</g>
					</g>
					<g>
						<g>
							<path style="fill:#FBAB7F;" d="M355.338,131.398c0,0.232-0.003,0.468-0.005,0.705c-0.003,0.103-0.003,0.206-0.005,0.312
								c-0.005,0.219-0.01,0.441-0.018,0.667c-0.086,2.914-0.38,6.131-0.767,9.353c-0.083,0.674-0.171,1.349-0.264,2.018
								c-0.078,0.579-0.156,1.158-0.239,1.732c-0.176,1.191-0.355,2.371-0.539,3.508c-0.126,0.793-0.254,1.571-0.385,2.323
								c-0.09,0.531-0.219,1.042-0.375,1.538c-0.501,1.555-1.324,2.94-2.376,4.092c-2.547,2.796-6.461,4.236-10.458,3.431
								c-3.267-0.662-6.879-1.472-10.249-2.409c-0.166-0.043-0.327-0.085-0.496-0.136c-2.698-0.76-5.227-1.606-7.281-2.522
								c-0.267-0.38-0.526-0.77-0.773-1.165c-2.152-3.438-3.436-7.294-4.201-11.288c-0.302-1.596-0.526-3.211-0.685-4.835
								c-0.013-0.131-0.038-0.252-0.065-0.375c0.003-1.493,0.018-2.98,0.045-4.412c0.194-10.586,9.106-18.911,19.679-18.373
								c8.358,0.428,16.322,3.667,18.335,7.973C355.028,125.269,355.343,128.07,355.338,131.398z"/>
						</g>
					</g>
					<g>
						<g>
							<g>
								<path style="fill:#2F374B;" d="M348.704,153.443c-0.352,0.449-0.783,0.87-1.308,1.206c-1.058,0.678-2.498,1.008-4.446,0.52
									c-1.636-0.411-2.694-1.637-3.375-2.961c-0.463-0.897-0.751-1.841-0.929-2.603c-0.215-0.92-0.267-1.579-0.267-1.579
									s7.912,1.706,11.809,2.086c0,0,0,0,0.001,0.002c-0.008,0.041-0.123,0.692-0.461,1.523
									C349.501,152.202,349.171,152.847,348.704,153.443z"/>
							</g>
							<g>
								<path style="fill:#FFFFFF;" d="M349.727,151.639c-3.754-0.194-9.537-1.687-11.082-2.032
									c-0.215-0.92-0.267-1.579-0.267-1.579s7.912,1.706,11.809,2.086c0,0,0,0,0.001,0.002
									C350.18,150.156,350.065,150.807,349.727,151.639z"/>
							</g>
						</g>
						<g>
							<g>
								<path style="fill:#FD4A36;" d="M347.396,154.65c-1.058,0.678-2.498,1.008-4.446,0.52c-1.636-0.411-2.694-1.637-3.375-2.961
									c0.595-0.168,2.196-0.428,4.085,0.767c0,0,0.84-0.26,2.084,0.207C346.469,153.455,347.079,153.868,347.396,154.65z"/>
							</g>
						</g>
					</g>
					<path style="fill:#2F374B;" d="M350.415,138.064c0,0.832,0.675,1.507,1.507,1.507c0.832,0,1.507-0.675,1.507-1.507
						c0-0.833-0.675-1.507-1.507-1.507C351.09,136.556,350.415,137.231,350.415,138.064z"/>
					<path style="fill:#2F374B;" d="M337.849,138.064c0,0.832,0.675,1.507,1.507,1.507c0.832,0,1.507-0.675,1.507-1.507
						c0-0.833-0.675-1.507-1.507-1.507C338.523,136.556,337.849,137.231,337.849,138.064z"/>
					<g>
						<g>
							<path style="fill:#2F374B;" d="M321.109,154.846c-2.152-3.439-3.435-7.297-4.198-11.292c1.187,0.015,2.737,0.374,4.754,1.308
								C321.665,144.862,322.122,150.749,321.109,154.846z"/>
						</g>
					</g>
					<g>
						<g>
							<path style="fill:#2F374B;" d="M333.22,133.713c0,0,1.192-2.451,3.482-3.065c2.12-0.569,3.635-0.022,4.394,0.392
								c0.331,0.18,0.474,0.58,0.343,0.934l0,0c-0.156,0.419-0.633,0.615-1.038,0.426
								C339.117,131.802,336.292,131.034,333.22,133.713z"/>
						</g>
					</g>
					<g>
						<g>
							<path style="fill:#2F374B;" d="M355.338,131.398c0,0.232-0.003,0.468-0.005,0.705c-0.003,0.103-0.003,0.206-0.005,0.312
								c-2.268-1.055-4.216-0.481-5.217-0.015c-0.106,0.048-0.214,0.073-0.325,0.073c-0.307,0-0.601-0.189-0.715-0.498
								c-0.131-0.352,0.012-0.752,0.342-0.934c0.758-0.413,2.273-0.961,4.394-0.393C354.389,130.804,354.9,131.075,355.338,131.398z
								"/>
						</g>
					</g>
					<g>
						<g>
							<g>
								<path style="fill:#FBAB7F;" d="M323.507,136.985c0,0-3.987-4.827-7.321-2.029c-3.674,3.083-0.856,13.534,6.612,13.295
									L323.507,136.985z"/>
							</g>
						</g>
						<g>
							<g>
								<path style="fill:#F48568;" d="M322.982,145.984c-0.329,0-0.613-0.247-0.652-0.582c-0.609-5.287-3.746-6.1-3.879-6.132
									c-0.351-0.085-0.57-0.437-0.489-0.788c0.082-0.352,0.427-0.573,0.78-0.494c0.17,0.038,4.172,1,4.894,7.263
									c0.042,0.361-0.217,0.687-0.578,0.728C323.032,145.983,323.007,145.984,322.982,145.984z"/>
							</g>
						</g>
						<g>
							<g>
								<path style="fill:#F48568;" d="M318.786,142.637c-0.155,0-0.311-0.054-0.436-0.165c-0.272-0.241-0.297-0.656-0.056-0.928
									c0.054-0.061,1.355-1.49,3.511-1.016c0.355,0.078,0.579,0.428,0.501,0.783c-0.078,0.354-0.429,0.578-0.783,0.501
									c-1.417-0.311-2.237,0.595-2.246,0.604C319.148,142.562,318.967,142.637,318.786,142.637z"/>
							</g>
						</g>
					</g>
					<g>
						<g>
							<path style="fill:#F48568;" d="M343.32,157.536c-2.579-0.341-3.909-1.974-3.98-2.064c-0.226-0.284-0.178-0.698,0.107-0.924
								c0.284-0.225,0.696-0.178,0.922,0.104c0.08,0.099,1.828,2.184,5.294,1.487c0.354-0.072,0.702,0.159,0.773,0.515
								c0.072,0.356-0.159,0.702-0.515,0.774C344.947,157.624,344.079,157.636,343.32,157.536z"/>
						</g>
					</g>
					<g>
						<g>
							<path style="fill:#2F374B;" d="M351.129,145.772c-3.481,0.695-6.799,0.804-10.077-0.558c-1.297-0.534-2.752-0.92-4.255-0.902
								c-2.896,0.036-5.529,1.228-7.207,2.201c-2.617-4.236-3.479-9.529-3.479-9.529l-2.603,0.001c0,0,0.303,9.127,2.745,15.821
								c0.785,2.156,1.942,4.144,3.406,5.862c1.819,2.151,4.111,3.881,6.749,5.002c1.753,0.744,3.431,1.134,4.82,1.028
								c4.053-0.312,11.889-7.811,11.888-12.683c-0.027,0.026,0.022-0.026,0,0c-1.54,3.158-3.907,5.934-7.351,6.254
								c-4.67,0.439-8.597-2.25-11.827-5.859c-1.823-2.037-0.141-5.104,2.772-4.934c0.022,0.005,0.044,0.005,0.066,0.005
								c2.239,0.161,4.632,1.26,6.503,1.904c2.165,0.744,3.207-0.036,5.012-0.514c3.395-0.908,4.592,0.135,5.21,0.822
								c0.316-0.404,0.736-0.96,0.896-1.786c0.111-0.569,0.156-1.123-0.019-1.971C353.962,145.196,352.742,145.45,351.129,145.772z"
								/>
						</g>
					</g>
					<g>
						<g>
							<g>
								<g>
									<path style="fill:#2F374B;" d="M338.38,142.781c-2.934,0.001-5.322-2.385-5.322-5.319c0-2.934,2.386-5.322,5.32-5.322
										c2.934-0.001,5.322,2.385,5.322,5.319C343.701,140.393,341.314,142.78,338.38,142.781z M338.377,133.016
										c-2.45,0.001-4.444,1.995-4.443,4.446c0.001,2.451,1.995,4.444,4.446,4.444c2.451-0.001,4.444-1.995,4.443-4.446
										C342.823,135.008,340.828,133.015,338.377,133.016z"/>
								</g>
							</g>
						</g>
						<g>
							<g>
								<g>
									<path style="fill:#2F374B;" d="M352.238,142.778c-2.934,0.001-5.322-2.386-5.322-5.32
										c-0.001-2.934,2.385-5.322,5.319-5.322c2.934-0.001,5.322,2.385,5.322,5.32
										C357.558,140.389,355.171,142.777,352.238,142.778z M352.235,133.012c-2.451,0.001-4.444,1.995-4.444,4.446
										c0.001,2.45,1.995,4.444,4.446,4.443c2.451,0,4.444-1.995,4.444-4.446C356.68,135.005,354.686,133.012,352.235,133.012z"/>
								</g>
							</g>
						</g>
						<g>
							<g>
								<g>
									
										<rect x="328.232" y="130.7" transform="matrix(0.077 -0.997 0.997 0.077 168.0292 452.9728)" style="fill:#2F374B;" width="0.876" height="10.063"/>
								</g>
							</g>
						</g>
						<g>
							<g>
								<g>
									<path style="fill:#2F374B;" d="M343.456,137.062l-0.508-0.714c0.846-0.604,2.926-1.378,4.735,0.008l-0.533,0.695
										C345.409,135.717,343.535,137.007,343.456,137.062z"/>
								</g>
							</g>
						</g>
					</g>
					<g>
						<g>
							<path style="fill:#F48568;" d="M346.566,144.71c-0.198,0-0.394-0.089-0.523-0.258c-0.22-0.289-0.165-0.701,0.124-0.921
								l1.752-1.338l-1.518-0.393c-0.253-0.065-0.443-0.274-0.484-0.532l-0.671-4.183c-0.057-0.359,0.187-0.696,0.545-0.753
								c0.357-0.06,0.696,0.186,0.753,0.545l0.603,3.759l2.41,0.624c0.243,0.064,0.429,0.26,0.479,0.507
								c0.05,0.246-0.046,0.5-0.245,0.652l-2.825,2.157C346.845,144.666,346.705,144.71,346.566,144.71z"/>
						</g>
					</g>
					<path style="fill:#2F374B;" d="M353.437,124.602c-0.005,0.008-0.007,0.01-0.007,0.01c-5.084,7.435-19.216-2.124-19.216-2.124
						c-0.742,3.42-5.726,3.347-6.989,6.249c-1.264,2.9-1.115,8.248-1.115,8.248h-2.602c-3.347-4.619-7.322-2.029-7.322-2.029
						c-1.893-9.104,0.72-15.428,9.785-20.505c1.518-0.851,3.159-1.444,4.862-1.817c0,0,0.003,0,0.005-0.002
						c2.776-1.193,13.125-0.493,20.448,4.689C358.208,122.219,353.707,124.295,353.437,124.602z"/>
				</g>
				<g>
					<g>
						<g>
							<g>
								<g>
									<path style="fill:#75B000;" d="M298.739,242.033c-1.82,14.356-2.182,27.723-2.182,27.723
										c-2.814,1.594-5.215,0.664-8.603,0.485c-3.094-18.391-1.827-34.896-1.827-46.925c3.181-17.379,14.453-51.767,14.453-51.767
										c9.458-1.115,12.111,12.051,12.111,12.051c-6.506,21.569-13.025,41.211-13.125,41.518
										C300.028,227.177,299.828,233.445,298.739,242.033z"/>
								</g>
							</g>
						</g>
					</g>
					<path style="fill:#FBAB7F;" d="M298.275,270.998c-1.695-1.949-2.685-1.383-4.555-1.301c-3.662,0.161-8.175,0.762-10.408,2.604
						c-3.315,2.735-2.161,8.784,0.435,10.182c2.595,1.398,9.205,2.514,10.463,0.723c1.258-1.792,0.919-4.478,1.676-5.765
						c0.756-1.288,0.387,2.725,1.405,3.399c0.509,0.337,1.008-0.134,1.538-1.311c1.153-2.557,1.188-3.989,0.51-6.21
						C299.088,272.502,298.73,271.721,298.275,270.998L298.275,270.998z"/>
				</g>
			</g>
		</g>
		<g>
			<g>
				<path style="fill:#FBAB7F;" d="M319.28,200.603c-1.419,11.403,5.161,18.749,6.31,34.137c1.989,0.993,4.493,0.951,6.521-1.552
					l-0.289-33.839L319.28,200.603z"/>
				<g>
					<path style="fill:#FD4A36;" d="M325.836,245.255c0.12,0.597,0.232,1.189,0.331,1.776l27.955-1.623
						c-0.035-0.611-0.153-1.208-0.341-1.776c-0.564-1.688-1.769-3.118-3.395-3.95c-4.418-2.26-10.793-3.062-10.793-3.062
						c-1.913-1.599-7.483-4.143-7.483-4.143c-4.375,2.074-6.943,1.397-6.943,1.397C324.23,237.909,325.127,241.66,325.836,245.255z"
						/>
					<path style="fill:#D42138;" d="M325.836,245.255c0.12,0.597,0.232,1.189,0.331,1.776l27.955-1.623
						c-0.035-0.611-0.153-1.208-0.341-1.776L325.836,245.255z"/>
				</g>
			</g>
			<path style="fill:#2F374B;" d="M297.081,152.029c0,0-5.621,14.372-2.451,20.844c3.17,6.472,12.704,8.924,15.71,11.516
				c3.006,2.591,7.795,21.016,7.795,21.016s9.814,2.245,16.187-2.476c0,0-3.295-26.731-8.537-34.151
				C325.786,168.776,314.751,154.972,297.081,152.029z"/>
		</g>
		<g>
			<g>
				<path style="fill:#FBAB7F;" d="M349.231,193.6c-0.853,10.428,4.859,22.68,6.342,35.486l6.547-1.211l-0.346-35.529L349.231,193.6
					z"/>
				<g>
					<path style="fill:#FD4A36;" d="M356.035,239.678c0.12,0.597,0.232,1.189,0.331,1.776l27.955-1.623
						c-0.035-0.611-0.153-1.208-0.341-1.776c-0.564-1.688-1.769-3.118-3.395-3.95c-4.418-2.26-10.793-3.062-10.793-3.062
						c-1.913-1.599-7.483-4.143-7.483-4.143c-4.375,2.074-6.943,1.397-6.943,1.397C354.429,232.331,355.326,236.083,356.035,239.678
						z"/>
					<path style="fill:#D42138;" d="M356.035,239.678c0.12,0.597,0.232,1.189,0.331,1.776l27.955-1.623
						c-0.035-0.611-0.153-1.208-0.341-1.776L356.035,239.678z"/>
				</g>
			</g>
			<path style="fill:#2F374B;" d="M363.296,197.775c-7.773,5.182-16.876,3.239-16.876,3.239s-0.397-13.603-2.72-23.751
				c-2.323-10.148-7.143-12.308-7.143-12.308c0.103-0.376,0.22-0.738,0.35-1.084c1.572,0.613,3.066,0.924,4.323,0.829
				c3.131-0.242,8.529-4.78,10.813-9.077c1.408,0.989,3.308,3.088,5.515,7.462C362.372,172.616,363.296,197.775,363.296,197.775z"/>
		</g>
		<g>
			<path style="fill:#005EDC;" d="M300.137,85.042c0,0-16.894-6.762-19.853-10.858c0,0-1.594-9.906-2.339-13.522
				c-0.745-3.616-2.856-14.042-2.856-14.042l-6.082,2.214c0,0-0.623,22.67,2.606,29.376c0,0,16.365,23.41,26.25,25.836
				C297.862,104.045,304.014,96.04,300.137,85.042z"/>
			<path style="fill:#FBAB7F;" d="M275.089,46.62c0,0,2.483-2.98,3.166-4.532c0.683-1.552,1.594-5.402,1.055-6.209
				c-0.538-0.807-2.483,0-2.732,1.614c-0.248,1.614-1.49,2.156-1.49,2.156s-0.579-7.806-1.987-9.461
				c-1.407-1.656-7.533,0.745-7.368,5.629c0.166,4.884,3.272,13.017,3.272,13.017S273.516,49.227,275.089,46.62z"/>
		</g>
	</g>
</g>
<g id="DESIGNED_BY_FREEPIK">
	<g>
		<g id="XMLID_1_">
			<g id="XMLID_20_">
				<path id="XMLID_28_" style="fill:#112129;" d="M260.104,465.465c-0.432,0.443-0.803,0.931-1.108,1.453l-0.465-0.241
					c-0.067-0.298-0.349-0.503-0.659-0.466c-0.331,0.039-0.568,0.339-0.529,0.67c0.039,0.331,0.339,0.568,0.67,0.529
					c0.065-0.008,0.127-0.026,0.183-0.052l0.452,0.234c-0.251,0.554-0.433,1.139-0.539,1.744l0.747,0.132
					c0.23-1.306,0.85-2.507,1.792-3.473L260.104,465.465z"/>
				<path id="XMLID_27_" style="fill:#112129;" d="M265.592,463.163c-0.171,0-0.341,0.006-0.51,0.017l-0.074-0.626
					c0.188-0.149,0.296-0.389,0.266-0.645c-0.046-0.393-0.402-0.674-0.795-0.628c-0.393,0.046-0.674,0.402-0.628,0.795
					c0.03,0.254,0.189,0.461,0.405,0.564l0.073,0.624c-0.714,0.116-1.403,0.332-2.06,0.646l0.327,0.684
					c0.934-0.447,1.942-0.673,2.995-0.673c0.496,0,0.993,0.053,1.475,0.158l0.161-0.741
					C266.692,463.222,266.142,463.163,265.592,463.163z"/>
				<path id="XMLID_26_" style="fill:#112129;" d="M272.194,465.711c0.331-0.04,0.566-0.341,0.526-0.672
					c-0.04-0.331-0.341-0.566-0.672-0.526c-0.309,0.038-0.535,0.304-0.53,0.609l-0.416,0.363c-0.418-0.43-0.89-0.813-1.408-1.139
					l-0.404,0.641c1.134,0.715,2.021,1.726,2.563,2.925l0.691-0.313c-0.251-0.554-0.568-1.072-0.942-1.545l0.402-0.351
					C272.065,465.716,272.129,465.719,272.194,465.711z"/>
				<path id="XMLID_25_" style="fill:#112129;" d="M265.044,473.372c-0.386,0.023-0.775,0.035-1.157,0.035
					c-0.88,0-1.733-0.061-2.478-0.179c-0.39-0.062-0.846-0.155-1.27-0.292c1.046,1.861,3.069,3.125,5.388,3.125
					c2.855,0,5.262-1.916,5.95-4.504c-0.682,0.449-1.505,0.825-2.459,1.123C267.839,473.047,266.464,473.286,265.044,473.372z"/>
				<path id="XMLID_21_" style="fill:#112129;" d="M265.592,464.68c-3.352,0-6.08,2.666-6.08,5.943c0,0.426,0.046,0.849,0.137,1.261
					c0.673,0.483,2.706,0.89,5.348,0.731c2.879-0.173,5.297-0.957,6.672-2.159c-0.005-0.195-0.021-0.39-0.045-0.582
					C271.244,466.913,268.65,464.68,265.592,464.68z M263.432,471.194c-1.02,0-1.85-0.83-1.85-1.85c0-1.02,0.83-1.85,1.85-1.85
					c1.02,0,1.85,0.83,1.85,1.85C265.282,470.365,264.452,471.194,263.432,471.194z M268.17,470.286c-0.75,0-1.36-0.61-1.36-1.36
					s0.61-1.361,1.36-1.361c0.75,0,1.361,0.61,1.361,1.361S268.92,470.286,268.17,470.286z"/>
			</g>
			<path id="XMLID_18_" style="fill:#112129;" d="M281.595,466.547c-0.295-0.116-0.805-0.309-1.382-0.237
				c-0.551,0.069-0.844,0.341-0.844,1.007v0.866h2.228v1.717h-2.228v5.455h-1.932v-5.455h-1.34v-1.717h1.34v-0.888
				c0-1.68,0.896-2.783,2.568-2.783c0.643,0,1.157,0.122,1.59,0.308L281.595,466.547z"/>
			<path id="XMLID_16_" style="fill:#112129;" d="M286.298,469.879c-0.177-0.03-0.358-0.046-0.526-0.046
				c-0.896,0-1.51,0.548-1.51,1.614v3.908h-1.932v-7.172h1.873v0.785c0.451-0.673,1.14-0.977,2.021-0.977
				c0.414,0,0.848,0.128,1.094,0.337L286.298,469.879z"/>
			<path id="XMLID_13_" style="fill:#112129;" d="M293.965,471.757c0,0.222-0.015,0.489-0.037,0.651h-5.085
				c0.207,1.036,0.933,1.488,1.843,1.488c0.622,0,1.295-0.252,1.813-0.688l1.132,1.243c-0.814,0.748-1.85,1.088-3.057,1.088
				c-2.198,0-3.723-1.495-3.723-3.753c0-2.258,1.48-3.797,3.627-3.797C292.544,467.99,293.958,469.522,293.965,471.757z
				 M288.851,471.091h3.175c-0.177-0.918-0.733-1.436-1.562-1.436C289.554,469.655,289.021,470.203,288.851,471.091z"/>
			<path id="XMLID_10_" style="fill:#112129;" d="M301.618,471.757c0,0.222-0.015,0.489-0.037,0.651h-5.085
				c0.207,1.036,0.933,1.488,1.843,1.488c0.622,0,1.295-0.252,1.813-0.688l1.132,1.243c-0.814,0.748-1.85,1.088-3.057,1.088
				c-2.198,0-3.723-1.495-3.723-3.753c0-2.258,1.48-3.797,3.627-3.797C300.197,467.99,301.611,469.522,301.618,471.757z
				 M296.504,471.091h3.175c-0.178-0.918-0.733-1.436-1.562-1.436C297.207,469.655,296.674,470.203,296.504,471.091z"/>
			<path id="XMLID_7_" style="fill:#112129;" d="M309.964,471.764c0,2.154-1.495,3.775-3.471,3.775
				c-0.962,0-1.643-0.378-2.109-0.933v3.708h-1.924v-10.133h1.887v0.792c0.466-0.585,1.155-0.984,2.139-0.984
				C308.469,467.99,309.964,469.61,309.964,471.764z M304.287,471.764c0,1.132,0.747,1.976,1.843,1.976
				c1.14,0,1.85-0.881,1.85-1.976c0-1.095-0.71-1.976-1.85-1.976C305.035,469.788,304.287,470.632,304.287,471.764z"/>
			<path id="XMLID_4_" style="fill:#112129;" d="M313.068,465.836c0,0.696-0.54,1.229-1.236,1.229c-0.696,0-1.229-0.533-1.229-1.229
				c0-0.696,0.533-1.243,1.229-1.243C312.527,464.592,313.068,465.14,313.068,465.836z M312.809,475.354h-1.932v-7.172h1.932
				V475.354z"/>
			<path id="XMLID_2_" style="fill:#112129;" d="M316.032,470.736l2.701-2.554h2.368l-3.479,3.375l3.501,3.797h-2.376l-2.716-2.901
				v2.901H314.1v-10.658h1.932V470.736z"/>
		</g>
		<g>
			<path style="fill:#112129;" d="M184.412,475.289v-1.055c-0.527,0.718-1.391,1.23-2.387,1.23c-1.846,0-3.149-1.406-3.149-3.706
				c0-2.256,1.289-3.721,3.149-3.721c0.952,0,1.816,0.469,2.387,1.245v-3.765h1.099v9.77H184.412z M184.412,473.37v-3.208
				c-0.395-0.615-1.245-1.143-2.124-1.143c-1.421,0-2.27,1.172-2.27,2.739c0,1.567,0.85,2.724,2.27,2.724
				C183.168,474.483,184.017,473.986,184.412,473.37z"/>
			<path style="fill:#112129;" d="M186.932,471.744c0-2.051,1.465-3.706,3.486-3.706c2.139,0,3.398,1.67,3.398,3.794v0.279h-5.727
				c0.088,1.333,1.025,2.446,2.549,2.446c0.805,0,1.626-0.322,2.182-0.894l0.527,0.718c-0.703,0.703-1.655,1.084-2.812,1.084
				C188.44,475.465,186.932,473.956,186.932,471.744z M190.403,468.947c-1.509,0-2.256,1.274-2.314,2.358h4.643
				C192.718,470.25,192.015,468.947,190.403,468.947z"/>
			<path style="fill:#112129;" d="M194.607,474.351l0.571-0.791c0.469,0.542,1.362,1.011,2.329,1.011c1.084,0,1.67-0.513,1.67-1.216
				c0-1.714-4.38-0.659-4.38-3.281c0-1.098,0.952-2.036,2.636-2.036c1.201,0,2.051,0.454,2.622,1.026l-0.513,0.762
				c-0.424-0.513-1.201-0.894-2.109-0.894c-0.967,0-1.567,0.483-1.567,1.113c0,1.552,4.38,0.527,4.38,3.281
				c0,1.187-0.952,2.138-2.783,2.138C196.306,475.465,195.325,475.113,194.607,474.351z"/>
			<path style="fill:#112129;" d="M201.477,466.471c0-0.41,0.337-0.747,0.732-0.747c0.41,0,0.747,0.337,0.747,0.747
				c0,0.41-0.337,0.732-0.747,0.732C201.814,467.203,201.477,466.881,201.477,466.471z M201.667,475.289v-7.075h1.099v7.075H201.667
				z"/>
			<path style="fill:#112129;" d="M204.582,477.105l0.556-0.82c0.586,0.703,1.289,0.967,2.3,0.967c1.172,0,2.27-0.571,2.27-2.124
				v-1.011c-0.513,0.718-1.377,1.26-2.373,1.26c-1.845,0-3.149-1.377-3.149-3.662c0-2.27,1.289-3.677,3.149-3.677
				c0.952,0,1.802,0.469,2.373,1.245v-1.069h1.098v6.87c0,2.344-1.641,3.076-3.369,3.076
				C206.237,478.16,205.417,477.926,204.582,477.105z M209.709,473.253v-3.091c-0.381-0.615-1.23-1.143-2.109-1.143
				c-1.421,0-2.27,1.128-2.27,2.695c0,1.553,0.849,2.695,2.27,2.695C208.478,474.41,209.328,473.868,209.709,473.253z"/>
			<path style="fill:#112129;" d="M217.413,475.289v-4.629c0-1.245-0.63-1.641-1.582-1.641c-0.865,0-1.685,0.527-2.095,1.099v5.17
				h-1.099v-7.075h1.099v1.025c0.498-0.586,1.465-1.201,2.519-1.201c1.48,0,2.256,0.747,2.256,2.285v4.966H217.413z"/>
			<path style="fill:#112129;" d="M219.932,471.744c0-2.051,1.465-3.706,3.486-3.706c2.139,0,3.398,1.67,3.398,3.794v0.279h-5.727
				c0.088,1.333,1.025,2.446,2.549,2.446c0.806,0,1.626-0.322,2.183-0.894l0.527,0.718c-0.703,0.703-1.655,1.084-2.812,1.084
				C221.441,475.465,219.932,473.956,219.932,471.744z M223.404,468.947c-1.509,0-2.256,1.274-2.314,2.358h4.643
				C225.718,470.25,225.015,468.947,223.404,468.947z"/>
			<path style="fill:#112129;" d="M233.35,475.289v-1.055c-0.527,0.718-1.392,1.23-2.388,1.23c-1.846,0-3.149-1.406-3.149-3.706
				c0-2.256,1.289-3.721,3.149-3.721c0.952,0,1.817,0.469,2.388,1.245v-3.765h1.098v9.77H233.35z M233.35,473.37v-3.208
				c-0.396-0.615-1.245-1.143-2.124-1.143c-1.421,0-2.27,1.172-2.27,2.739c0,1.567,0.849,2.724,2.27,2.724
				C232.105,474.483,232.954,473.986,233.35,473.37z"/>
			<path style="fill:#112129;" d="M239.692,475.289v-9.77h1.098v3.765c0.572-0.776,1.421-1.245,2.388-1.245
				c1.845,0,3.149,1.465,3.149,3.721c0,2.299-1.304,3.706-3.149,3.706c-0.996,0-1.86-0.513-2.388-1.23v1.055H239.692z
				 M242.9,474.483c1.436,0,2.285-1.157,2.285-2.724c0-1.568-0.85-2.739-2.285-2.739c-0.864,0-1.728,0.527-2.109,1.143v3.208
				C241.171,473.986,242.036,474.483,242.9,474.483z"/>
			<path style="fill:#112129;" d="M247.528,477.061c0.161,0.073,0.425,0.117,0.601,0.117c0.483,0,0.805-0.161,1.055-0.747
				l0.469-1.069l-2.959-7.148h1.187l2.358,5.8l2.344-5.8h1.201l-3.545,8.51c-0.425,1.025-1.143,1.421-2.08,1.435
				c-0.234,0-0.601-0.044-0.806-0.103L247.528,477.061z"/>
		</g>
	</g>
</g>
</svg>
